<svg xmlns="http://www.w3.org/2000/svg" xmlns:xlink="http://www.w3.org/1999/xlink" width="1500" zoomAndPan="magnify" viewBox="0 0 1125 374.999991" height="500" preserveAspectRatio="xMidYMid meet" version="1.0"><defs><filter x="0%" y="0%" width="100%" height="100%" id="7db26de8a8"><feColorMatrix values="0 0 0 0 1 0 0 0 0 1 0 0 0 0 1 0 0 0 1 0" color-interpolation-filters="sRGB"/></filter><g/><mask id="74e6fd44de"><g filter="url(#7db26de8a8)"><rect x="-112.5" width="1350" fill="#000000" y="-37.499999" height="449.999989" fill-opacity="0.7"/></g></mask><clipPath id="8872151372"><path d="M 9 9 L 257 9 L 257 264 L 9 264 Z M 9 9 " clip-rule="nonzero"/></clipPath><clipPath id="48a8aca3a9"><path d="M 0.914062 57.382812 L 205.59375 0.71875 L 265.132812 215.789062 L 60.457031 272.453125 Z M 0.914062 57.382812 " clip-rule="nonzero"/></clipPath><clipPath id="ee7e5589a0"><path d="M 37.054688 47.375 L 169.453125 10.722656 C 189.414062 5.199219 210.074219 16.898438 215.597656 36.859375 L 255.082031 179.484375 C 260.609375 199.441406 248.90625 220.101562 228.945312 225.628906 L 96.550781 262.28125 C 76.589844 267.804688 55.929688 256.105469 50.40625 236.144531 L 10.921875 93.523438 C 5.394531 73.5625 17.097656 52.902344 37.054688 47.375 Z M 37.054688 47.375 " clip-rule="nonzero"/></clipPath><clipPath id="585b4baaf0"><path d="M 0 0 L 248 0 L 248 255 L 0 255 Z M 0 0 " clip-rule="nonzero"/></clipPath><clipPath id="4df8de9b49"><path d="M -8.085938 48.382812 L 196.59375 -8.28125 L 256.132812 206.789062 L 51.457031 263.453125 Z M -8.085938 48.382812 " clip-rule="nonzero"/></clipPath><clipPath id="8c5dd1e01c"><path d="M 28.054688 38.375 L 160.453125 1.722656 C 180.414062 -3.800781 201.074219 7.898438 206.597656 27.859375 L 246.082031 170.484375 C 251.609375 190.441406 239.90625 211.101562 219.945312 216.628906 L 87.550781 253.28125 C 67.589844 258.804688 46.929688 247.105469 41.40625 227.144531 L 1.921875 84.523438 C -3.605469 64.5625 8.097656 43.902344 28.054688 38.375 Z M 28.054688 38.375 " clip-rule="nonzero"/></clipPath><clipPath id="0fd36de4b8"><path d="M -8.085938 48.382812 L 196.59375 -8.28125 L 256.132812 206.789062 L 51.457031 263.453125 Z M -8.085938 48.382812 " clip-rule="nonzero"/></clipPath><clipPath id="807c96a718"><path d="M -8.085938 48.378906 L 196.59375 -8.285156 L 256.085938 206.621094 L 51.410156 263.28125 Z M -8.085938 48.378906 " clip-rule="nonzero"/></clipPath><linearGradient x1="-62.47014" gradientTransform="matrix(0.799523, -0.221339, 0.221339, 0.799523, -8.085085, 48.378389)" y1="134.395004" x2="318.470121" gradientUnits="userSpaceOnUse" y2="134.395004" id="673fd3a976"><stop stop-opacity="1" stop-color="rgb(100%, 87.059021%, 34.899902%)" offset="0"/><stop stop-opacity="1" stop-color="rgb(100%, 87.059021%, 34.899902%)" offset="0.125"/><stop stop-opacity="1" stop-color="rgb(100%, 87.059021%, 34.899902%)" offset="0.15625"/><stop stop-opacity="1" stop-color="rgb(100%, 86.882019%, 34.870911%)" offset="0.171875"/><stop stop-opacity="1" stop-color="rgb(100%, 86.529541%, 34.815979%)" offset="0.179688"/><stop stop-opacity="1" stop-color="rgb(100%, 86.178589%, 34.762573%)" offset="0.1875"/><stop stop-opacity="1" stop-color="rgb(100%, 85.827637%, 34.707642%)" offset="0.195313"/><stop stop-opacity="1" stop-color="rgb(100%, 85.476685%, 34.65271%)" offset="0.203125"/><stop stop-opacity="1" stop-color="rgb(100%, 85.124207%, 34.597778%)" offset="0.210938"/><stop stop-opacity="1" stop-color="rgb(100%, 84.773254%, 34.542847%)" offset="0.21875"/><stop stop-opacity="1" stop-color="rgb(100%, 84.422302%, 34.489441%)" offset="0.226563"/><stop stop-opacity="1" stop-color="rgb(100%, 84.07135%, 34.434509%)" offset="0.234375"/><stop stop-opacity="1" stop-color="rgb(100%, 83.720398%, 34.379578%)" offset="0.242188"/><stop stop-opacity="1" stop-color="rgb(100%, 83.369446%, 34.324646%)" offset="0.25"/><stop stop-opacity="1" stop-color="rgb(100%, 83.018494%, 34.269714%)" offset="0.257812"/><stop stop-opacity="1" stop-color="rgb(100%, 82.667542%, 34.216309%)" offset="0.265625"/><stop stop-opacity="1" stop-color="rgb(100%, 82.316589%, 34.161377%)" offset="0.273438"/><stop stop-opacity="1" stop-color="rgb(100%, 81.965637%, 34.106445%)" offset="0.28125"/><stop stop-opacity="1" stop-color="rgb(100%, 81.614685%, 34.051514%)" offset="0.289063"/><stop stop-opacity="1" stop-color="rgb(100%, 81.262207%, 33.996582%)" offset="0.296875"/><stop stop-opacity="1" stop-color="rgb(100%, 80.911255%, 33.94165%)" offset="0.304688"/><stop stop-opacity="1" stop-color="rgb(100%, 80.560303%, 33.888245%)" offset="0.3125"/><stop stop-opacity="1" stop-color="rgb(100%, 80.209351%, 33.833313%)" offset="0.320313"/><stop stop-opacity="1" stop-color="rgb(100%, 79.858398%, 33.778381%)" offset="0.328125"/><stop stop-opacity="1" stop-color="rgb(100%, 79.507446%, 33.72345%)" offset="0.335938"/><stop stop-opacity="1" stop-color="rgb(100%, 79.156494%, 33.668518%)" offset="0.34375"/><stop stop-opacity="1" stop-color="rgb(100%, 78.805542%, 33.615112%)" offset="0.351562"/><stop stop-opacity="1" stop-color="rgb(100%, 78.45459%, 33.560181%)" offset="0.359375"/><stop stop-opacity="1" stop-color="rgb(100%, 78.103638%, 33.505249%)" offset="0.367188"/><stop stop-opacity="1" stop-color="rgb(100%, 77.752686%, 33.450317%)" offset="0.375"/><stop stop-opacity="1" stop-color="rgb(100%, 77.401733%, 33.395386%)" offset="0.382813"/><stop stop-opacity="1" stop-color="rgb(100%, 77.049255%, 33.34198%)" offset="0.390625"/><stop stop-opacity="1" stop-color="rgb(100%, 76.698303%, 33.287048%)" offset="0.398438"/><stop stop-opacity="1" stop-color="rgb(100%, 76.347351%, 33.232117%)" offset="0.40625"/><stop stop-opacity="1" stop-color="rgb(100%, 75.996399%, 33.177185%)" offset="0.414063"/><stop stop-opacity="1" stop-color="rgb(100%, 75.645447%, 33.122253%)" offset="0.421875"/><stop stop-opacity="1" stop-color="rgb(100%, 75.294495%, 33.068848%)" offset="0.429688"/><stop stop-opacity="1" stop-color="rgb(100%, 74.943542%, 33.013916%)" offset="0.4375"/><stop stop-opacity="1" stop-color="rgb(100%, 74.59259%, 32.958984%)" offset="0.445312"/><stop stop-opacity="1" stop-color="rgb(100%, 74.241638%, 32.904053%)" offset="0.453125"/><stop stop-opacity="1" stop-color="rgb(100%, 73.890686%, 32.849121%)" offset="0.460938"/><stop stop-opacity="1" stop-color="rgb(100%, 73.539734%, 32.795715%)" offset="0.46875"/><stop stop-opacity="1" stop-color="rgb(100%, 73.187256%, 32.740784%)" offset="0.476563"/><stop stop-opacity="1" stop-color="rgb(100%, 72.836304%, 32.685852%)" offset="0.484375"/><stop stop-opacity="1" stop-color="rgb(100%, 72.485352%, 32.63092%)" offset="0.492188"/><stop stop-opacity="1" stop-color="rgb(100%, 72.134399%, 32.575989%)" offset="0.5"/><stop stop-opacity="1" stop-color="rgb(100%, 71.783447%, 32.521057%)" offset="0.507812"/><stop stop-opacity="1" stop-color="rgb(100%, 71.432495%, 32.467651%)" offset="0.515625"/><stop stop-opacity="1" stop-color="rgb(100%, 71.081543%, 32.41272%)" offset="0.523438"/><stop stop-opacity="1" stop-color="rgb(100%, 70.730591%, 32.357788%)" offset="0.53125"/><stop stop-opacity="1" stop-color="rgb(100%, 70.379639%, 32.302856%)" offset="0.539063"/><stop stop-opacity="1" stop-color="rgb(100%, 70.028687%, 32.247925%)" offset="0.546875"/><stop stop-opacity="1" stop-color="rgb(100%, 69.677734%, 32.194519%)" offset="0.554688"/><stop stop-opacity="1" stop-color="rgb(100%, 69.326782%, 32.139587%)" offset="0.5625"/><stop stop-opacity="1" stop-color="rgb(100%, 68.974304%, 32.084656%)" offset="0.570313"/><stop stop-opacity="1" stop-color="rgb(100%, 68.623352%, 32.029724%)" offset="0.578125"/><stop stop-opacity="1" stop-color="rgb(100%, 68.2724%, 31.974792%)" offset="0.585938"/><stop stop-opacity="1" stop-color="rgb(100%, 67.921448%, 31.921387%)" offset="0.59375"/><stop stop-opacity="1" stop-color="rgb(100%, 67.570496%, 31.866455%)" offset="0.601563"/><stop stop-opacity="1" stop-color="rgb(100%, 67.219543%, 31.811523%)" offset="0.609375"/><stop stop-opacity="1" stop-color="rgb(100%, 66.868591%, 31.756592%)" offset="0.617188"/><stop stop-opacity="1" stop-color="rgb(100%, 66.517639%, 31.70166%)" offset="0.625"/><stop stop-opacity="1" stop-color="rgb(100%, 66.166687%, 31.648254%)" offset="0.632813"/><stop stop-opacity="1" stop-color="rgb(100%, 65.815735%, 31.593323%)" offset="0.640625"/><stop stop-opacity="1" stop-color="rgb(100%, 65.464783%, 31.538391%)" offset="0.648438"/><stop stop-opacity="1" stop-color="rgb(100%, 65.112305%, 31.483459%)" offset="0.65625"/><stop stop-opacity="1" stop-color="rgb(100%, 64.761353%, 31.428528%)" offset="0.664063"/><stop stop-opacity="1" stop-color="rgb(100%, 64.4104%, 31.373596%)" offset="0.671875"/><stop stop-opacity="1" stop-color="rgb(100%, 64.059448%, 31.32019%)" offset="0.679688"/><stop stop-opacity="1" stop-color="rgb(100%, 63.708496%, 31.265259%)" offset="0.6875"/><stop stop-opacity="1" stop-color="rgb(100%, 63.357544%, 31.210327%)" offset="0.695313"/><stop stop-opacity="1" stop-color="rgb(100%, 63.006592%, 31.155396%)" offset="0.703125"/><stop stop-opacity="1" stop-color="rgb(100%, 62.65564%, 31.100464%)" offset="0.710938"/><stop stop-opacity="1" stop-color="rgb(100%, 62.304688%, 31.047058%)" offset="0.71875"/><stop stop-opacity="1" stop-color="rgb(100%, 61.953735%, 30.992126%)" offset="0.726563"/><stop stop-opacity="1" stop-color="rgb(100%, 61.602783%, 30.937195%)" offset="0.734375"/><stop stop-opacity="1" stop-color="rgb(100%, 61.250305%, 30.882263%)" offset="0.742188"/><stop stop-opacity="1" stop-color="rgb(100%, 60.899353%, 30.827332%)" offset="0.75"/><stop stop-opacity="1" stop-color="rgb(100%, 60.548401%, 30.773926%)" offset="0.757813"/><stop stop-opacity="1" stop-color="rgb(100%, 60.197449%, 30.718994%)" offset="0.765625"/><stop stop-opacity="1" stop-color="rgb(100%, 59.846497%, 30.664062%)" offset="0.773438"/><stop stop-opacity="1" stop-color="rgb(100%, 59.495544%, 30.609131%)" offset="0.78125"/><stop stop-opacity="1" stop-color="rgb(100%, 59.144592%, 30.554199%)" offset="0.789062"/><stop stop-opacity="1" stop-color="rgb(100%, 58.79364%, 30.500793%)" offset="0.796875"/><stop stop-opacity="1" stop-color="rgb(100%, 58.442688%, 30.445862%)" offset="0.804688"/><stop stop-opacity="1" stop-color="rgb(100%, 58.091736%, 30.39093%)" offset="0.8125"/><stop stop-opacity="1" stop-color="rgb(100%, 57.740784%, 30.335999%)" offset="0.820312"/><stop stop-opacity="1" stop-color="rgb(100%, 57.389832%, 30.281067%)" offset="0.828125"/><stop stop-opacity="1" stop-color="rgb(100%, 57.035828%, 30.226135%)" offset="0.84375"/><stop stop-opacity="1" stop-color="rgb(100%, 56.858826%, 30.198669%)" offset="0.875"/><stop stop-opacity="1" stop-color="rgb(100%, 56.858826%, 30.198669%)" offset="1"/></linearGradient><clipPath id="ccdc5b5d22"><rect x="0" width="248" y="0" height="255"/></clipPath><clipPath id="16c3764246"><rect x="0" width="266" y="0" height="273"/></clipPath><mask id="0585acedbb"><g filter="url(#7db26de8a8)"><rect x="-112.5" width="1350" fill="#000000" y="-37.499999" height="449.999989" fill-opacity="0.8"/></g></mask><clipPath id="2c24b674e8"><path d="M 6 18 L 234 18 L 234 249 L 6 249 Z M 6 18 " clip-rule="nonzero"/></clipPath><clipPath id="106f9cd809"><path d="M 56.332031 -12.222656 L 283.082031 49.503906 L 227.550781 253.492188 L 0.800781 191.765625 Z M 56.332031 -12.222656 " clip-rule="nonzero"/></clipPath><clipPath id="d98c88b769"><path d="M 184.402344 34.757812 L 232.660156 221.140625 C 234.605469 228.648438 232.40625 236.625 226.886719 242.078125 C 221.367188 247.527344 213.363281 249.628906 205.878906 247.59375 L 22.101562 197.5625 C 14.617188 195.527344 8.78125 189.660156 6.789062 182.160156 C 4.792969 174.664062 6.941406 166.671875 12.421875 161.1875 L 148.496094 24.984375 C 153.933594 19.542969 161.863281 17.433594 169.285156 19.453125 C 176.703125 21.472656 182.472656 27.3125 184.402344 34.757812 Z M 184.402344 34.757812 " clip-rule="nonzero"/></clipPath><clipPath id="2bccb6420a"><path d="M 0 0 L 228 0 L 228 231 L 0 231 Z M 0 0 " clip-rule="nonzero"/></clipPath><clipPath id="dab4eecfc2"><path d="M 50.332031 -30.222656 L 277.082031 31.503906 L 221.550781 235.492188 L -5.199219 173.765625 Z M 50.332031 -30.222656 " clip-rule="nonzero"/></clipPath><clipPath id="d325ce407f"><path d="M 178.402344 16.757812 L 226.660156 203.140625 C 228.605469 210.648438 226.40625 218.625 220.886719 224.078125 C 215.367188 229.527344 207.363281 231.628906 199.878906 229.59375 L 16.101562 179.5625 C 8.617188 177.527344 2.78125 171.660156 0.789062 164.160156 C -1.207031 156.664062 0.941406 148.671875 6.421875 143.1875 L 142.496094 6.984375 C 147.933594 1.542969 155.863281 -0.566406 163.285156 1.453125 C 170.703125 3.472656 176.472656 9.3125 178.402344 16.757812 Z M 178.402344 16.757812 " clip-rule="nonzero"/></clipPath><clipPath id="e0120b71cf"><path d="M 40.929688 -54.410156 L 297.449219 15.421875 L 236.433594 239.542969 L -20.082031 169.714844 Z M 40.929688 -54.410156 " clip-rule="nonzero"/></clipPath><clipPath id="50a55fa86c"><path d="M 50.394531 -29.28125 L 276.167969 32.179688 L 220.871094 235.308594 L -4.898438 173.847656 Z M 50.394531 -29.28125 " clip-rule="nonzero"/></clipPath><linearGradient x1="-29.218948" gradientTransform="matrix(0.875486, 0.238327, -0.238327, 0.875486, 40.926373, -54.41081)" y1="139.992004" x2="282.386034" gradientUnits="userSpaceOnUse" y2="139.992004" id="f6f8e895c1"><stop stop-opacity="1" stop-color="rgb(100%, 19.219971%, 19.219971%)" offset="0"/><stop stop-opacity="1" stop-color="rgb(100%, 19.219971%, 19.219971%)" offset="0.125"/><stop stop-opacity="1" stop-color="rgb(100%, 19.374084%, 19.264221%)" offset="0.15625"/><stop stop-opacity="1" stop-color="rgb(100%, 19.706726%, 19.361877%)" offset="0.164062"/><stop stop-opacity="1" stop-color="rgb(100%, 20.062256%, 19.465637%)" offset="0.171875"/><stop stop-opacity="1" stop-color="rgb(100%, 20.41626%, 19.569397%)" offset="0.179687"/><stop stop-opacity="1" stop-color="rgb(100%, 20.77179%, 19.673157%)" offset="0.1875"/><stop stop-opacity="1" stop-color="rgb(100%, 21.127319%, 19.775391%)" offset="0.195312"/><stop stop-opacity="1" stop-color="rgb(100%, 21.482849%, 19.87915%)" offset="0.203125"/><stop stop-opacity="1" stop-color="rgb(100%, 21.838379%, 19.98291%)" offset="0.210938"/><stop stop-opacity="1" stop-color="rgb(100%, 22.193909%, 20.08667%)" offset="0.21875"/><stop stop-opacity="1" stop-color="rgb(100%, 22.549438%, 20.19043%)" offset="0.226562"/><stop stop-opacity="1" stop-color="rgb(100%, 22.904968%, 20.294189%)" offset="0.234375"/><stop stop-opacity="1" stop-color="rgb(100%, 23.258972%, 20.397949%)" offset="0.242187"/><stop stop-opacity="1" stop-color="rgb(100%, 23.614502%, 20.501709%)" offset="0.25"/><stop stop-opacity="1" stop-color="rgb(100%, 23.970032%, 20.605469%)" offset="0.257812"/><stop stop-opacity="1" stop-color="rgb(100%, 24.325562%, 20.709229%)" offset="0.265625"/><stop stop-opacity="1" stop-color="rgb(100%, 24.681091%, 20.812988%)" offset="0.273438"/><stop stop-opacity="1" stop-color="rgb(100%, 25.036621%, 20.916748%)" offset="0.28125"/><stop stop-opacity="1" stop-color="rgb(100%, 25.392151%, 21.020508%)" offset="0.289062"/><stop stop-opacity="1" stop-color="rgb(100%, 25.746155%, 21.124268%)" offset="0.296875"/><stop stop-opacity="1" stop-color="rgb(100%, 26.101685%, 21.226501%)" offset="0.304688"/><stop stop-opacity="1" stop-color="rgb(100%, 26.457214%, 21.330261%)" offset="0.3125"/><stop stop-opacity="1" stop-color="rgb(100%, 26.812744%, 21.434021%)" offset="0.320312"/><stop stop-opacity="1" stop-color="rgb(100%, 27.168274%, 21.537781%)" offset="0.328125"/><stop stop-opacity="1" stop-color="rgb(100%, 27.523804%, 21.641541%)" offset="0.335938"/><stop stop-opacity="1" stop-color="rgb(100%, 27.879333%, 21.7453%)" offset="0.34375"/><stop stop-opacity="1" stop-color="rgb(100%, 28.233337%, 21.84906%)" offset="0.351562"/><stop stop-opacity="1" stop-color="rgb(100%, 28.588867%, 21.95282%)" offset="0.359375"/><stop stop-opacity="1" stop-color="rgb(100%, 28.944397%, 22.05658%)" offset="0.367188"/><stop stop-opacity="1" stop-color="rgb(100%, 29.299927%, 22.160339%)" offset="0.375"/><stop stop-opacity="1" stop-color="rgb(100%, 29.655457%, 22.264099%)" offset="0.382812"/><stop stop-opacity="1" stop-color="rgb(100%, 30.010986%, 22.367859%)" offset="0.390625"/><stop stop-opacity="1" stop-color="rgb(100%, 30.366516%, 22.471619%)" offset="0.398437"/><stop stop-opacity="1" stop-color="rgb(100%, 30.722046%, 22.575378%)" offset="0.40625"/><stop stop-opacity="1" stop-color="rgb(100%, 31.07605%, 22.677612%)" offset="0.414062"/><stop stop-opacity="1" stop-color="rgb(100%, 31.43158%, 22.781372%)" offset="0.421875"/><stop stop-opacity="1" stop-color="rgb(100%, 31.787109%, 22.885132%)" offset="0.429687"/><stop stop-opacity="1" stop-color="rgb(100%, 32.142639%, 22.988892%)" offset="0.4375"/><stop stop-opacity="1" stop-color="rgb(100%, 32.498169%, 23.092651%)" offset="0.445312"/><stop stop-opacity="1" stop-color="rgb(100%, 32.853699%, 23.196411%)" offset="0.453125"/><stop stop-opacity="1" stop-color="rgb(100%, 33.209229%, 23.300171%)" offset="0.460937"/><stop stop-opacity="1" stop-color="rgb(100%, 33.563232%, 23.403931%)" offset="0.46875"/><stop stop-opacity="1" stop-color="rgb(100%, 33.918762%, 23.50769%)" offset="0.476562"/><stop stop-opacity="1" stop-color="rgb(100%, 34.274292%, 23.61145%)" offset="0.484375"/><stop stop-opacity="1" stop-color="rgb(100%, 34.629822%, 23.71521%)" offset="0.492187"/><stop stop-opacity="1" stop-color="rgb(100%, 34.985352%, 23.81897%)" offset="0.5"/><stop stop-opacity="1" stop-color="rgb(100%, 35.340881%, 23.922729%)" offset="0.507812"/><stop stop-opacity="1" stop-color="rgb(100%, 35.696411%, 24.026489%)" offset="0.515625"/><stop stop-opacity="1" stop-color="rgb(100%, 36.051941%, 24.128723%)" offset="0.523438"/><stop stop-opacity="1" stop-color="rgb(100%, 36.405945%, 24.232483%)" offset="0.53125"/><stop stop-opacity="1" stop-color="rgb(100%, 36.761475%, 24.336243%)" offset="0.539062"/><stop stop-opacity="1" stop-color="rgb(100%, 37.117004%, 24.440002%)" offset="0.546875"/><stop stop-opacity="1" stop-color="rgb(100%, 37.472534%, 24.543762%)" offset="0.554688"/><stop stop-opacity="1" stop-color="rgb(100%, 37.828064%, 24.647522%)" offset="0.5625"/><stop stop-opacity="1" stop-color="rgb(100%, 38.183594%, 24.751282%)" offset="0.570312"/><stop stop-opacity="1" stop-color="rgb(100%, 38.539124%, 24.855042%)" offset="0.578125"/><stop stop-opacity="1" stop-color="rgb(100%, 38.893127%, 24.958801%)" offset="0.585938"/><stop stop-opacity="1" stop-color="rgb(100%, 39.248657%, 25.062561%)" offset="0.59375"/><stop stop-opacity="1" stop-color="rgb(100%, 39.604187%, 25.166321%)" offset="0.601562"/><stop stop-opacity="1" stop-color="rgb(100%, 39.959717%, 25.270081%)" offset="0.609375"/><stop stop-opacity="1" stop-color="rgb(100%, 40.315247%, 25.37384%)" offset="0.617188"/><stop stop-opacity="1" stop-color="rgb(100%, 40.670776%, 25.4776%)" offset="0.625"/><stop stop-opacity="1" stop-color="rgb(100%, 41.026306%, 25.579834%)" offset="0.632812"/><stop stop-opacity="1" stop-color="rgb(100%, 41.381836%, 25.683594%)" offset="0.640625"/><stop stop-opacity="1" stop-color="rgb(100%, 41.73584%, 25.787354%)" offset="0.648438"/><stop stop-opacity="1" stop-color="rgb(100%, 42.09137%, 25.891113%)" offset="0.65625"/><stop stop-opacity="1" stop-color="rgb(100%, 42.446899%, 25.994873%)" offset="0.664062"/><stop stop-opacity="1" stop-color="rgb(100%, 42.802429%, 26.098633%)" offset="0.671875"/><stop stop-opacity="1" stop-color="rgb(100%, 43.157959%, 26.202393%)" offset="0.679688"/><stop stop-opacity="1" stop-color="rgb(100%, 43.513489%, 26.306152%)" offset="0.6875"/><stop stop-opacity="1" stop-color="rgb(100%, 43.869019%, 26.409912%)" offset="0.695312"/><stop stop-opacity="1" stop-color="rgb(100%, 44.223022%, 26.513672%)" offset="0.703125"/><stop stop-opacity="1" stop-color="rgb(100%, 44.578552%, 26.617432%)" offset="0.710938"/><stop stop-opacity="1" stop-color="rgb(100%, 44.934082%, 26.721191%)" offset="0.71875"/><stop stop-opacity="1" stop-color="rgb(100%, 45.289612%, 26.824951%)" offset="0.726562"/><stop stop-opacity="1" stop-color="rgb(100%, 45.645142%, 26.928711%)" offset="0.734375"/><stop stop-opacity="1" stop-color="rgb(100%, 46.000671%, 27.030945%)" offset="0.742187"/><stop stop-opacity="1" stop-color="rgb(100%, 46.356201%, 27.134705%)" offset="0.75"/><stop stop-opacity="1" stop-color="rgb(100%, 46.710205%, 27.238464%)" offset="0.757812"/><stop stop-opacity="1" stop-color="rgb(100%, 47.065735%, 27.342224%)" offset="0.765625"/><stop stop-opacity="1" stop-color="rgb(100%, 47.421265%, 27.445984%)" offset="0.773437"/><stop stop-opacity="1" stop-color="rgb(100%, 47.776794%, 27.549744%)" offset="0.78125"/><stop stop-opacity="1" stop-color="rgb(100%, 48.132324%, 27.653503%)" offset="0.789062"/><stop stop-opacity="1" stop-color="rgb(100%, 48.487854%, 27.757263%)" offset="0.796875"/><stop stop-opacity="1" stop-color="rgb(100%, 48.843384%, 27.861023%)" offset="0.804687"/><stop stop-opacity="1" stop-color="rgb(100%, 49.198914%, 27.964783%)" offset="0.8125"/><stop stop-opacity="1" stop-color="rgb(100%, 49.552917%, 28.068542%)" offset="0.820312"/><stop stop-opacity="1" stop-color="rgb(100%, 49.908447%, 28.172302%)" offset="0.828125"/><stop stop-opacity="1" stop-color="rgb(100%, 50.263977%, 28.276062%)" offset="0.835937"/><stop stop-opacity="1" stop-color="rgb(100%, 50.619507%, 28.379822%)" offset="0.84375"/><stop stop-opacity="1" stop-color="rgb(100%, 50.975037%, 28.483582%)" offset="0.851562"/><stop stop-opacity="1" stop-color="rgb(100%, 51.330566%, 28.585815%)" offset="0.859375"/><stop stop-opacity="1" stop-color="rgb(100%, 51.686096%, 28.689575%)" offset="0.867188"/><stop stop-opacity="1" stop-color="rgb(100%, 52.0401%, 28.793335%)" offset="0.875"/><stop stop-opacity="1" stop-color="rgb(100%, 52.39563%, 28.897095%)" offset="0.882812"/><stop stop-opacity="1" stop-color="rgb(100%, 52.75116%, 29.000854%)" offset="0.890625"/><stop stop-opacity="1" stop-color="rgb(100%, 53.106689%, 29.104614%)" offset="0.898438"/><stop stop-opacity="1" stop-color="rgb(100%, 53.462219%, 29.208374%)" offset="0.90625"/><stop stop-opacity="1" stop-color="rgb(100%, 53.817749%, 29.312134%)" offset="0.914062"/><stop stop-opacity="1" stop-color="rgb(100%, 54.173279%, 29.415894%)" offset="0.921875"/><stop stop-opacity="1" stop-color="rgb(100%, 54.528809%, 29.519653%)" offset="0.929688"/><stop stop-opacity="1" stop-color="rgb(100%, 54.882812%, 29.623413%)" offset="0.9375"/><stop stop-opacity="1" stop-color="rgb(100%, 55.238342%, 29.727173%)" offset="0.945312"/><stop stop-opacity="1" stop-color="rgb(100%, 55.593872%, 29.830933%)" offset="0.953125"/><stop stop-opacity="1" stop-color="rgb(100%, 55.949402%, 29.934692%)" offset="0.960937"/><stop stop-opacity="1" stop-color="rgb(100%, 56.304932%, 30.036926%)" offset="0.96875"/><stop stop-opacity="1" stop-color="rgb(100%, 56.671143%, 30.143738%)" offset="1"/></linearGradient><clipPath id="8fadc11ea3"><rect x="0" width="228" y="0" height="231"/></clipPath><clipPath id="162637c8ee"><rect x="0" width="284" y="0" height="254"/></clipPath><clipPath id="b01778697f"><path d="M 1.675781 0 L 1046 0 L 1046 375 L 1.675781 375 Z M 1.675781 0 " clip-rule="nonzero"/></clipPath><clipPath id="8415228209"><path d="M 0.675781 0 L 1045 0 L 1045 375 L 0.675781 375 Z M 0.675781 0 " clip-rule="nonzero"/></clipPath><clipPath id="72c7f30117"><path d="M 501.445312 0 L 1045 0 L 1045 375 L 501.445312 375 Z M 501.445312 0 " clip-rule="nonzero"/></clipPath><linearGradient x1="237.687" gradientTransform="matrix(0.779608, 0, 0, 0.780377, 316.143133, 77.856806)" y1="141" x2="934.901185" gradientUnits="userSpaceOnUse" y2="141" id="bdb3dcc0eb"><stop stop-opacity="1" stop-color="rgb(100%, 19.219971%, 19.219971%)" offset="0"/><stop stop-opacity="1" stop-color="rgb(100%, 19.219971%, 19.219971%)" offset="0.5"/><stop stop-opacity="1" stop-color="rgb(100%, 19.219971%, 19.219971%)" offset="0.5625"/><stop stop-opacity="1" stop-color="rgb(100%, 19.219971%, 19.219971%)" offset="0.578125"/><stop stop-opacity="1" stop-color="rgb(100%, 19.517517%, 19.30542%)" offset="0.582031"/><stop stop-opacity="1" stop-color="rgb(100%, 19.815063%, 19.392395%)" offset="0.585938"/><stop stop-opacity="1" stop-color="rgb(100%, 20.195007%, 19.503784%)" offset="0.589844"/><stop stop-opacity="1" stop-color="rgb(100%, 20.576477%, 19.615173%)" offset="0.59375"/><stop stop-opacity="1" stop-color="rgb(100%, 20.957947%, 19.726562%)" offset="0.597656"/><stop stop-opacity="1" stop-color="rgb(100%, 21.339417%, 19.837952%)" offset="0.601562"/><stop stop-opacity="1" stop-color="rgb(100%, 21.71936%, 19.947815%)" offset="0.605469"/><stop stop-opacity="1" stop-color="rgb(100%, 22.10083%, 20.059204%)" offset="0.609375"/><stop stop-opacity="1" stop-color="rgb(100%, 22.4823%, 20.170593%)" offset="0.613281"/><stop stop-opacity="1" stop-color="rgb(100%, 22.86377%, 20.281982%)" offset="0.617188"/><stop stop-opacity="1" stop-color="rgb(100%, 23.243713%, 20.393372%)" offset="0.621094"/><stop stop-opacity="1" stop-color="rgb(100%, 23.625183%, 20.504761%)" offset="0.625"/><stop stop-opacity="1" stop-color="rgb(100%, 24.006653%, 20.61615%)" offset="0.628906"/><stop stop-opacity="1" stop-color="rgb(100%, 24.388123%, 20.727539%)" offset="0.632812"/><stop stop-opacity="1" stop-color="rgb(100%, 24.768066%, 20.837402%)" offset="0.636719"/><stop stop-opacity="1" stop-color="rgb(100%, 25.149536%, 20.948792%)" offset="0.640625"/><stop stop-opacity="1" stop-color="rgb(100%, 25.52948%, 21.060181%)" offset="0.644531"/><stop stop-opacity="1" stop-color="rgb(100%, 25.91095%, 21.17157%)" offset="0.648438"/><stop stop-opacity="1" stop-color="rgb(100%, 26.292419%, 21.282959%)" offset="0.652344"/><stop stop-opacity="1" stop-color="rgb(100%, 26.673889%, 21.394348%)" offset="0.65625"/><stop stop-opacity="1" stop-color="rgb(100%, 27.053833%, 21.504211%)" offset="0.660156"/><stop stop-opacity="1" stop-color="rgb(100%, 27.435303%, 21.615601%)" offset="0.664062"/><stop stop-opacity="1" stop-color="rgb(100%, 27.816772%, 21.72699%)" offset="0.667969"/><stop stop-opacity="1" stop-color="rgb(100%, 28.198242%, 21.838379%)" offset="0.671875"/><stop stop-opacity="1" stop-color="rgb(100%, 28.578186%, 21.949768%)" offset="0.675781"/><stop stop-opacity="1" stop-color="rgb(100%, 28.959656%, 22.061157%)" offset="0.679688"/><stop stop-opacity="1" stop-color="rgb(100%, 29.341125%, 22.171021%)" offset="0.683594"/><stop stop-opacity="1" stop-color="rgb(100%, 29.722595%, 22.28241%)" offset="0.6875"/><stop stop-opacity="1" stop-color="rgb(100%, 30.102539%, 22.393799%)" offset="0.691406"/><stop stop-opacity="1" stop-color="rgb(100%, 30.484009%, 22.505188%)" offset="0.695312"/><stop stop-opacity="1" stop-color="rgb(100%, 30.865479%, 22.616577%)" offset="0.699219"/><stop stop-opacity="1" stop-color="rgb(100%, 31.246948%, 22.727966%)" offset="0.703125"/><stop stop-opacity="1" stop-color="rgb(100%, 31.626892%, 22.83783%)" offset="0.707031"/><stop stop-opacity="1" stop-color="rgb(100%, 32.008362%, 22.949219%)" offset="0.710938"/><stop stop-opacity="1" stop-color="rgb(100%, 32.388306%, 23.060608%)" offset="0.714844"/><stop stop-opacity="1" stop-color="rgb(100%, 32.769775%, 23.171997%)" offset="0.71875"/><stop stop-opacity="1" stop-color="rgb(100%, 33.151245%, 23.283386%)" offset="0.722656"/><stop stop-opacity="1" stop-color="rgb(100%, 33.532715%, 23.394775%)" offset="0.726562"/><stop stop-opacity="1" stop-color="rgb(100%, 33.912659%, 23.506165%)" offset="0.730469"/><stop stop-opacity="1" stop-color="rgb(100%, 34.294128%, 23.617554%)" offset="0.734375"/><stop stop-opacity="1" stop-color="rgb(100%, 34.675598%, 23.727417%)" offset="0.738281"/><stop stop-opacity="1" stop-color="rgb(100%, 35.057068%, 23.838806%)" offset="0.742188"/><stop stop-opacity="1" stop-color="rgb(100%, 35.437012%, 23.950195%)" offset="0.746094"/><stop stop-opacity="1" stop-color="rgb(100%, 35.818481%, 24.061584%)" offset="0.75"/><stop stop-opacity="1" stop-color="rgb(100%, 36.199951%, 24.172974%)" offset="0.753906"/><stop stop-opacity="1" stop-color="rgb(100%, 36.581421%, 24.284363%)" offset="0.757812"/><stop stop-opacity="1" stop-color="rgb(100%, 36.961365%, 24.394226%)" offset="0.761719"/><stop stop-opacity="1" stop-color="rgb(100%, 37.342834%, 24.505615%)" offset="0.765625"/><stop stop-opacity="1" stop-color="rgb(100%, 37.722778%, 24.617004%)" offset="0.769531"/><stop stop-opacity="1" stop-color="rgb(100%, 38.104248%, 24.728394%)" offset="0.773438"/><stop stop-opacity="1" stop-color="rgb(100%, 38.485718%, 24.839783%)" offset="0.777344"/><stop stop-opacity="1" stop-color="rgb(100%, 38.867188%, 24.951172%)" offset="0.78125"/><stop stop-opacity="1" stop-color="rgb(100%, 39.247131%, 25.061035%)" offset="0.785156"/><stop stop-opacity="1" stop-color="rgb(100%, 39.628601%, 25.172424%)" offset="0.789062"/><stop stop-opacity="1" stop-color="rgb(100%, 40.010071%, 25.283813%)" offset="0.792969"/><stop stop-opacity="1" stop-color="rgb(100%, 40.391541%, 25.395203%)" offset="0.796875"/><stop stop-opacity="1" stop-color="rgb(100%, 40.771484%, 25.506592%)" offset="0.800781"/><stop stop-opacity="1" stop-color="rgb(100%, 41.152954%, 25.617981%)" offset="0.804687"/><stop stop-opacity="1" stop-color="rgb(100%, 41.534424%, 25.727844%)" offset="0.808594"/><stop stop-opacity="1" stop-color="rgb(100%, 41.915894%, 25.839233%)" offset="0.8125"/><stop stop-opacity="1" stop-color="rgb(100%, 42.295837%, 25.950623%)" offset="0.816406"/><stop stop-opacity="1" stop-color="rgb(100%, 42.677307%, 26.062012%)" offset="0.820312"/><stop stop-opacity="1" stop-color="rgb(100%, 43.058777%, 26.173401%)" offset="0.824219"/><stop stop-opacity="1" stop-color="rgb(100%, 43.440247%, 26.28479%)" offset="0.828125"/><stop stop-opacity="1" stop-color="rgb(100%, 43.82019%, 26.396179%)" offset="0.832031"/><stop stop-opacity="1" stop-color="rgb(100%, 44.20166%, 26.507568%)" offset="0.835938"/><stop stop-opacity="1" stop-color="rgb(100%, 44.581604%, 26.617432%)" offset="0.839844"/><stop stop-opacity="1" stop-color="rgb(100%, 44.963074%, 26.728821%)" offset="0.84375"/><stop stop-opacity="1" stop-color="rgb(100%, 45.344543%, 26.84021%)" offset="0.847656"/><stop stop-opacity="1" stop-color="rgb(100%, 45.726013%, 26.951599%)" offset="0.851563"/><stop stop-opacity="1" stop-color="rgb(100%, 46.105957%, 27.062988%)" offset="0.855469"/><stop stop-opacity="1" stop-color="rgb(100%, 46.487427%, 27.174377%)" offset="0.859375"/><stop stop-opacity="1" stop-color="rgb(100%, 46.868896%, 27.284241%)" offset="0.863281"/><stop stop-opacity="1" stop-color="rgb(100%, 47.250366%, 27.39563%)" offset="0.867188"/><stop stop-opacity="1" stop-color="rgb(100%, 47.63031%, 27.507019%)" offset="0.871094"/><stop stop-opacity="1" stop-color="rgb(100%, 48.01178%, 27.618408%)" offset="0.875"/><stop stop-opacity="1" stop-color="rgb(100%, 48.39325%, 27.729797%)" offset="0.878906"/><stop stop-opacity="1" stop-color="rgb(100%, 48.774719%, 27.841187%)" offset="0.882813"/><stop stop-opacity="1" stop-color="rgb(100%, 49.154663%, 27.95105%)" offset="0.886719"/><stop stop-opacity="1" stop-color="rgb(100%, 49.536133%, 28.062439%)" offset="0.890625"/><stop stop-opacity="1" stop-color="rgb(100%, 49.917603%, 28.173828%)" offset="0.894531"/><stop stop-opacity="1" stop-color="rgb(100%, 50.299072%, 28.285217%)" offset="0.898438"/><stop stop-opacity="1" stop-color="rgb(100%, 50.679016%, 28.396606%)" offset="0.902344"/><stop stop-opacity="1" stop-color="rgb(100%, 51.060486%, 28.507996%)" offset="0.90625"/><stop stop-opacity="1" stop-color="rgb(100%, 51.44043%, 28.617859%)" offset="0.910156"/><stop stop-opacity="1" stop-color="rgb(100%, 51.821899%, 28.729248%)" offset="0.914062"/><stop stop-opacity="1" stop-color="rgb(100%, 52.203369%, 28.840637%)" offset="0.917969"/><stop stop-opacity="1" stop-color="rgb(100%, 52.584839%, 28.952026%)" offset="0.921875"/><stop stop-opacity="1" stop-color="rgb(100%, 52.964783%, 29.063416%)" offset="0.925781"/><stop stop-opacity="1" stop-color="rgb(100%, 53.346252%, 29.174805%)" offset="0.929688"/><stop stop-opacity="1" stop-color="rgb(100%, 53.727722%, 29.286194%)" offset="0.933594"/><stop stop-opacity="1" stop-color="rgb(100%, 54.109192%, 29.397583%)" offset="0.9375"/><stop stop-opacity="1" stop-color="rgb(100%, 54.489136%, 29.507446%)" offset="0.941406"/><stop stop-opacity="1" stop-color="rgb(100%, 54.870605%, 29.618835%)" offset="0.945312"/><stop stop-opacity="1" stop-color="rgb(100%, 55.252075%, 29.730225%)" offset="0.949219"/><stop stop-opacity="1" stop-color="rgb(100%, 55.633545%, 29.841614%)" offset="0.953125"/><stop stop-opacity="1" stop-color="rgb(100%, 56.013489%, 29.953003%)" offset="0.957031"/><stop stop-opacity="1" stop-color="rgb(100%, 56.394958%, 30.064392%)" offset="0.960938"/><stop stop-opacity="1" stop-color="rgb(100%, 56.626892%, 30.131531%)" offset="0.964844"/><stop stop-opacity="1" stop-color="rgb(100%, 56.858826%, 30.198669%)" offset="0.96875"/><stop stop-opacity="1" stop-color="rgb(100%, 56.858826%, 30.198669%)" offset="1"/></linearGradient><clipPath id="1cefc221ee"><rect x="0" width="1045" y="0" height="375"/></clipPath><clipPath id="a551c8b795"><path d="M 0.675781 0 L 1045 0 L 1045 375 L 0.675781 375 Z M 0.675781 0 " clip-rule="nonzero"/></clipPath><clipPath id="491ab8f138"><rect x="0" width="1045" y="0" height="375"/></clipPath><clipPath id="334e7a46af"><rect x="0" width="1045" y="0" height="375"/></clipPath><mask id="9bb717dde5"><g filter="url(#7db26de8a8)"><g><g clip-path="url(#334e7a46af)"><g clip-path="url(#a551c8b795)"><g><g clip-path="url(#491ab8f138)"><g fill="#000000" fill-opacity="1"><g transform="translate(816.535733, 227.280811)"><g><path d="M 35.953125 -111.625 L 35.953125 -43.671875 C 35.953125 -36.734375 38.128906 -31.03125 42.484375 -26.5625 C 46.847656 -22.09375 52.1875 -19.859375 58.5 -19.859375 C 64.90625 -19.859375 70.238281 -22.195312 74.5 -26.875 C 78.757812 -31.5625 80.890625 -37.160156 80.890625 -43.671875 L 80.890625 -111.625 L 105.484375 -111.625 L 105.484375 -42.578125 C 105.484375 -28.910156 101.273438 -17.921875 92.859375 -9.609375 C 84.453125 -1.304688 73 2.84375 58.5 2.84375 C 44.09375 2.84375 32.632812 -1.28125 24.125 -9.53125 C 15.613281 -17.789062 11.359375 -28.804688 11.359375 -42.578125 L 11.359375 -111.625 Z M 35.953125 -111.625 "/></g></g></g><g fill="#000000" fill-opacity="1"><g transform="translate(930.209055, 227.280811)"><g><path d="M 56.125 -78.515625 C 67.375 -78.515625 76.46875 -74.804688 83.40625 -67.390625 C 90.34375 -59.984375 93.8125 -50.5 93.8125 -38.9375 C 93.8125 -27.269531 90.523438 -17.546875 83.953125 -9.765625 C 77.390625 -1.992188 69.007812 1.890625 58.8125 1.890625 C 47.5625 1.890625 39.46875 -1.472656 34.53125 -8.203125 L 34.21875 -8.203125 L 34.21875 35.953125 L 10.5625 35.953125 L 10.5625 -76.625 L 32.328125 -76.625 L 32.328125 -66.53125 L 32.640625 -66.53125 C 35.265625 -70.21875 38.703125 -73.132812 42.953125 -75.28125 C 47.210938 -77.4375 51.601562 -78.515625 56.125 -78.515625 Z M 32.328125 -38.3125 C 32.328125 -32.53125 34.003906 -27.851562 37.359375 -24.28125 C 40.722656 -20.707031 45.351562 -18.921875 51.25 -18.921875 C 57.03125 -18.921875 61.625 -20.65625 65.03125 -24.125 C 68.445312 -27.59375 70.15625 -32.320312 70.15625 -38.3125 C 70.15625 -44.300781 68.445312 -49.03125 65.03125 -52.5 C 61.625 -55.96875 56.972656 -57.703125 51.078125 -57.703125 C 45.296875 -57.703125 40.722656 -55.890625 37.359375 -52.265625 C 34.003906 -48.640625 32.328125 -43.988281 32.328125 -38.3125 Z M 32.328125 -38.3125 "/></g></g></g></g></g></g></g></g></g></mask><clipPath id="412a340fc2"><path d="M 501.445312 0 L 1045 0 L 1045 375 L 501.445312 375 Z M 501.445312 0 " clip-rule="nonzero"/></clipPath><clipPath id="dd9c6e919c"><rect x="0" width="1045" y="0" height="375"/></clipPath><clipPath id="49e7fc38bc"><rect x="0" width="1045" y="0" height="375"/></clipPath><clipPath id="5a00d7c47d"><rect x="0" width="1046" y="0" height="375"/></clipPath></defs><g mask="url(#74e6fd44de)"><g transform="matrix(1, 0, 0, 1, 16, 84)"><g clip-path="url(#16c3764246)"><g clip-path="url(#8872151372)"><g clip-path="url(#48a8aca3a9)"><g clip-path="url(#ee7e5589a0)"><g transform="matrix(1, 0, 0, 1, 9, 9)"><g clip-path="url(#ccdc5b5d22)"><g clip-path="url(#585b4baaf0)"><g clip-path="url(#4df8de9b49)"><g clip-path="url(#8c5dd1e01c)"><g clip-path="url(#0fd36de4b8)"><g clip-path="url(#807c96a718)"><path fill="url(#673fd3a976)" d="M -71.128906 14.890625 L 14.5625 324.429688 L 319.132812 240.113281 L 233.441406 -69.425781 Z M -71.128906 14.890625 " fill-rule="nonzero"/></g></g></g></g></g></g></g></g></g></g></g></g></g><g mask="url(#0585acedbb)"><g transform="matrix(1, 0, 0, 1, 141, 0)"><g clip-path="url(#162637c8ee)"><g clip-path="url(#2c24b674e8)"><g clip-path="url(#106f9cd809)"><g clip-path="url(#d98c88b769)"><g transform="matrix(1, 0, 0, 1, 6, 18)"><g clip-path="url(#8fadc11ea3)"><g clip-path="url(#2bccb6420a)"><g clip-path="url(#dab4eecfc2)"><g clip-path="url(#d325ce407f)"><g clip-path="url(#e0120b71cf)"><g clip-path="url(#50a55fa86c)"><path fill="url(#f6f8e895c1)" d="M 14.648438 -58.8125 L -60.054688 215.609375 L 212.75 289.875 L 287.453125 15.453125 Z M 14.648438 -58.8125 " fill-rule="nonzero"/></g></g></g></g></g></g></g></g></g></g></g></g></g><g transform="matrix(1, 0, 0, 1, 79, 0)"><g clip-path="url(#5a00d7c47d)"><g fill="#000000" fill-opacity="1"><g transform="translate(316.801971, 227.280811)"><g><path d="M 49.1875 -114.46875 C 63.0625 -114.46875 74.46875 -110.578125 83.40625 -102.796875 L 66.53125 -84.359375 C 64.539062 -86.878906 61.835938 -88.742188 58.421875 -89.953125 C 55.003906 -91.160156 51.769531 -91.765625 48.71875 -91.765625 C 44.09375 -91.765625 40.175781 -90.710938 36.96875 -88.609375 C 33.769531 -86.503906 32.171875 -83.71875 32.171875 -80.25 C 32.171875 -77.207031 33.40625 -74.660156 35.875 -72.609375 C 38.34375 -70.554688 42.203125 -68.796875 47.453125 -67.328125 C 59.546875 -63.753906 67.5625 -60.648438 71.5 -58.015625 C 75.445312 -55.390625 78.441406 -52.101562 80.484375 -48.15625 C 82.535156 -44.21875 83.5625 -39.46875 83.5625 -33.90625 C 83.5625 -22.65625 79.644531 -13.71875 71.8125 -7.09375 C 63.988281 -0.46875 53.554688 2.84375 40.515625 2.84375 C 25.484375 2.84375 12.976562 -1.832031 3 -11.1875 L 20.5 -30.4375 C 25.96875 -23.382812 33.113281 -19.859375 41.9375 -19.859375 C 46.664062 -19.859375 50.6875 -20.910156 54 -23.015625 C 57.3125 -25.117188 58.96875 -27.957031 58.96875 -31.53125 C 58.96875 -37.414062 53.921875 -41.9375 43.828125 -45.09375 C 31.003906 -48.976562 22.644531 -52.257812 18.75 -54.9375 C 14.863281 -57.625 11.867188 -60.804688 9.765625 -64.484375 C 7.671875 -68.160156 6.625 -72.734375 6.625 -78.203125 C 6.625 -88.921875 10.59375 -97.644531 18.53125 -104.375 C 26.46875 -111.101562 36.6875 -114.46875 49.1875 -114.46875 Z M 49.1875 -114.46875 "/></g></g></g><g fill="#000000" fill-opacity="1"><g transform="translate(404.145942, 227.280811)"><g><path d="M 43.046875 -78.515625 C 47.671875 -78.515625 52.160156 -77.4375 56.515625 -75.28125 C 60.878906 -73.132812 64.269531 -70.21875 66.6875 -66.53125 L 67.015625 -66.53125 L 67.015625 -76.625 L 88.765625 -76.625 L 88.765625 35.953125 L 65.125 35.953125 L 65.125 -8.203125 L 64.796875 -8.203125 C 59.859375 -1.472656 51.765625 1.890625 40.515625 1.890625 C 30.429688 1.890625 22.078125 -2.050781 15.453125 -9.9375 C 8.828125 -17.820312 5.515625 -27.488281 5.515625 -38.9375 C 5.515625 -50.5 8.984375 -59.984375 15.921875 -67.390625 C 22.859375 -74.804688 31.898438 -78.515625 43.046875 -78.515625 Z M 29.171875 -38.3125 C 29.171875 -32.53125 30.851562 -27.851562 34.21875 -24.28125 C 37.582031 -20.707031 42.207031 -18.921875 48.09375 -18.921875 C 53.875 -18.921875 58.472656 -20.65625 61.890625 -24.125 C 65.304688 -27.59375 67.015625 -32.320312 67.015625 -38.3125 C 67.015625 -44.300781 65.304688 -49.03125 61.890625 -52.5 C 58.472656 -55.96875 53.820312 -57.703125 47.9375 -57.703125 C 42.257812 -57.703125 37.710938 -55.914062 34.296875 -52.34375 C 30.878906 -48.769531 29.171875 -44.09375 29.171875 -38.3125 Z M 29.171875 -38.3125 "/></g></g></g><g fill="#000000" fill-opacity="1"><g transform="translate(500.318915, 227.280811)"><g><path d="M 32 -76.625 L 32 -38.625 C 32 -32.945312 32.394531 -28.953125 33.1875 -26.640625 C 33.976562 -24.328125 35.265625 -22.460938 37.046875 -21.046875 C 38.835938 -19.628906 41.257812 -18.921875 44.3125 -18.921875 C 49.351562 -18.921875 52.976562 -20.46875 55.1875 -23.5625 C 57.394531 -26.664062 58.5 -31.425781 58.5 -37.84375 L 58.5 -76.625 L 82.140625 -76.625 L 82.140625 0 L 59.4375 0 L 59.4375 -10.40625 L 59.125 -10.40625 C 57.019531 -6.519531 53.992188 -3.5 50.046875 -1.34375 C 46.109375 0.8125 41.617188 1.890625 36.578125 1.890625 C 26.484375 1.890625 19.253906 -0.921875 14.890625 -6.546875 C 10.535156 -12.171875 8.359375 -21.128906 8.359375 -33.421875 L 8.359375 -76.625 Z M 32 -76.625 "/></g></g></g><g fill="#000000" fill-opacity="1"><g transform="translate(587.662886, 227.280811)"><g><path d="M 43.203125 -78.515625 C 55.390625 -78.515625 64.269531 -75.570312 69.84375 -69.6875 C 75.414062 -63.800781 78.203125 -53.921875 78.203125 -40.046875 L 78.203125 0 L 56.453125 0 L 56.453125 -9.625 L 56.125 -9.625 C 51.1875 -1.945312 43.09375 1.890625 31.84375 1.890625 C 23.851562 1.890625 17.3125 -0.285156 12.21875 -4.640625 C 7.125 -9.003906 4.578125 -14.710938 4.578125 -21.765625 C 4.578125 -27.859375 6.3125 -32.925781 9.78125 -36.96875 C 13.25 -41.019531 18.476562 -43.988281 25.46875 -45.875 C 32.457031 -47.769531 42.785156 -48.71875 56.453125 -48.71875 C 56.453125 -52.820312 54.925781 -56.132812 51.875 -58.65625 C 48.820312 -61.175781 45.300781 -62.4375 41.3125 -62.4375 C 33.945312 -62.4375 27.535156 -59.390625 22.078125 -53.296875 L 9.453125 -66.21875 C 13.867188 -70.53125 19.097656 -73.65625 25.140625 -75.59375 C 31.191406 -77.539062 37.210938 -78.515625 43.203125 -78.515625 Z M 27.28125 -22.546875 C 27.28125 -20.023438 28.351562 -18 30.5 -16.46875 C 32.65625 -14.945312 35.363281 -14.1875 38.625 -14.1875 C 43.882812 -14.1875 48.171875 -15.523438 51.484375 -18.203125 C 54.796875 -20.890625 56.453125 -24.390625 56.453125 -28.703125 L 56.453125 -33.578125 L 49.34375 -33.578125 C 42.195312 -33.578125 36.734375 -32.601562 32.953125 -30.65625 C 29.171875 -28.71875 27.28125 -26.015625 27.28125 -22.546875 Z M 27.28125 -22.546875 "/></g></g></g><g fill="#000000" fill-opacity="1"><g transform="translate(669.173424, 227.280811)"><g><path d="M 54.546875 -78.515625 C 57.804688 -78.515625 60.382812 -78.253906 62.28125 -77.734375 L 62.28125 -56.125 C 58.707031 -57.175781 55.34375 -57.703125 52.1875 -57.703125 C 45.039062 -57.703125 39.890625 -55.941406 36.734375 -52.421875 C 33.578125 -48.898438 32 -42.410156 32 -32.953125 L 32 0 L 8.359375 0 L 8.359375 -76.625 L 32 -76.625 L 32 -64.328125 L 32.328125 -64.328125 C 34.847656 -69.054688 37.84375 -72.601562 41.3125 -74.96875 C 44.78125 -77.332031 49.191406 -78.515625 54.546875 -78.515625 Z M 54.546875 -78.515625 "/></g></g></g><g fill="#000000" fill-opacity="1"><g transform="translate(730.18802, 227.280811)"><g><path d="M 5.984375 -38.3125 C 5.984375 -50.082031 9.976562 -59.722656 17.96875 -67.234375 C 25.957031 -74.753906 36.363281 -78.515625 49.1875 -78.515625 C 59.914062 -78.515625 68.484375 -74.804688 74.890625 -67.390625 C 81.304688 -59.984375 84.515625 -50.03125 84.515625 -37.53125 L 84.515625 -30.90625 L 29.640625 -30.90625 C 30.585938 -26.488281 32.582031 -22.910156 35.625 -20.171875 C 38.675781 -17.441406 42.617188 -16.078125 47.453125 -16.078125 C 53.972656 -16.078125 59.597656 -19.179688 64.328125 -25.390625 L 80.890625 -13.25 C 77.097656 -8.40625 72.234375 -4.671875 66.296875 -2.046875 C 60.359375 0.578125 54.445312 1.890625 48.5625 1.890625 C 36.363281 1.890625 26.21875 -1.863281 18.125 -9.375 C 10.03125 -16.894531 5.984375 -26.539062 5.984375 -38.3125 Z M 60.859375 -46.984375 C 60.859375 -51.398438 59.4375 -54.921875 56.59375 -57.546875 C 53.757812 -60.171875 50.296875 -61.484375 46.203125 -61.484375 C 41.785156 -61.484375 38.023438 -60.171875 34.921875 -57.546875 C 31.816406 -54.921875 30.054688 -51.398438 29.640625 -46.984375 Z M 60.859375 -46.984375 "/></g></g></g><g clip-path="url(#b01778697f)"><g transform="matrix(1, 0, 0, 1, 1, 0)"><g clip-path="url(#49e7fc38bc)"><g clip-path="url(#8415228209)"><g mask="url(#9bb717dde5)"><g><g clip-path="url(#dd9c6e919c)"><g clip-path="url(#412a340fc2)"><path fill="url(#bdb3dcc0eb)" d="M 501.445312 0 L 501.445312 375 L 1045 375 L 1045 0 Z M 501.445312 0 " fill-rule="nonzero"/></g></g></g></g></g></g></g></g></g></g></svg>